<?xml version="1.0" standalone="no"?>
<!DOCTYPE svg PUBLIC "-//W3C//DTD SVG 20010904//EN"
 "http://www.w3.org/TR/2001/REC-SVG-20010904/DTD/svg10.dtd">
<svg version="1.0" xmlns="http://www.w3.org/2000/svg"
 width="260.000000pt" height="260.000000pt" viewBox="0 0 260.000000 260.000000"
 preserveAspectRatio="xMidYMid meet">
<metadata>
Created by potrace 1.14, written by Peter Selinger 2001-2017
</metadata>
<g transform="translate(0.000000,260.000000) scale(0.100000,-0.100000)"
fill="#000000" stroke="none">
<path d="M196 2044 c-3 -8 -6 -51 -6 -95 l0 -79 -95 0 -95 0 0 -275 0 -275 84
0 c98 0 96 2 96 -106 l0 -74 74 0 c108 0 106 1 106 -90 0 -51 4 -81 13 -88 7
-6 51 -12 97 -14 l85 -3 5 -85 5 -85 80 -3 c43 -2 85 -8 92 -14 9 -7 13 -37
13 -89 l0 -79 110 0 110 0 0 78 c0 42 4 82 8 89 5 7 40 13 92 15 l85 3 2 55
c2 30 5 70 8 88 l6 32 79 0 c109 0 110 0 110 74 0 81 6 88 66 84 l49 -3 5 -60
5 -60 55 -5 55 -5 5 -65 c3 -36 9 -71 13 -77 5 -8 32 -13 72 -13 l64 0 3 -62
3 -63 62 -3 c70 -3 70 -4 75 -92 l3 -45 68 -3 c41 -2 74 2 82 8 8 7 15 36 17
68 l3 57 62 3 62 3 3 62 3 62 70 5 70 5 5 75 5 75 58 3 57 3 0 49 c0 77 3 80
76 80 l64 0 0 190 0 189 -72 3 -73 3 -5 60 -5 60 -127 3 -128 3 0 -66 0 -65
-70 0 -70 0 0 -60 c0 -68 -12 -80 -80 -80 -68 0 -80 12 -80 80 l0 59 -67 3
-68 3 -3 60 c-2 33 -9 67 -17 75 -10 11 -15 49 -17 125 l-3 110 -90 5 -90 5
-3 80 c-2 43 -8 85 -14 92 -8 10 -53 13 -178 13 -93 0 -175 -3 -184 -6 -13 -5
-16 -22 -16 -84 0 -51 -4 -81 -13 -88 -7 -6 -49 -12 -92 -14 l-80 -3 -5 -85
-5 -85 -82 -3 -82 -3 -3 88 -3 88 -92 3 c-107 3 -101 -3 -105 117 l-3 70 -186
3 c-164 2 -187 0 -193 -14z m184 -449 l5 -90 85 -5 85 -5 3 -87 3 -87 87 -3
87 -3 0 -85 0 -85 -85 0 -85 0 -3 88 -3 87 -83 0 c-98 0 -96 -2 -96 106 l0 74
-78 0 c-47 0 -83 5 -90 12 -13 13 -17 160 -5 172 4 4 43 5 88 4 l80 -3 5 -90z
m1248 -317 l3 -38 65 0 64 0 0 -65 0 -64 63 -3 62 -3 3 -72 3 -73 -70 0 c-78
0 -77 -1 -83 80 -3 35 -3 35 -58 38 -30 2 -60 8 -67 14 -8 6 -13 33 -13 64 0
45 -3 54 -18 54 -28 0 -42 20 -42 60 0 46 6 52 50 48 33 -3 35 -5 38 -40z"/>
</g>
</svg>
